<svg width="32" height="32" viewBox="0 0 32 32" fill="none" xmlns="http://www.w3.org/2000/svg">
  <rect x="3" y="3" width="26" height="26" rx="6" fill="#1d3328" stroke="#62c083" stroke-width="2"/>
  <path d="M9 21V10h7c2.2 0 3.8 1.2 3.8 3.1 0 1.1-.5 2-1.5 2.5 1.3.4 2.1 1.4 2.1 2.8 0 2-1.7 3.6-4.2 3.6H9zm3-6.7h3.5c.8 0 1.3-.4 1.3-1.1s-.5-1.1-1.3-1.1H12v2.2zm0 4.7h3.8c.9 0 1.5-.5 1.5-1.3 0-.8-.6-1.3-1.5-1.3H12V19z" fill="#f5f2e8"/>
  <path d="M21.8 22.2l-2-2 4.4-4.4-4.4-4.4 2-2 6.4 6.4-6.4 6.4z" fill="#d4a843"/>
</svg>
